<?xml version="1.0" encoding="UTF-8" standalone="no"?><!DOCTYPE svg PUBLIC "-//W3C//DTD SVG 1.1//EN" "http://www.w3.org/Graphics/SVG/1.1/DTD/svg11.dtd"><svg width="100%" height="100%" viewBox="0 0 192 144" version="1.1" xmlns="http://www.w3.org/2000/svg" xmlns:xlink="http://www.w3.org/1999/xlink" xml:space="preserve" xmlns:serif="http://www.serif.com/" style="fill-rule:evenodd;clip-rule:evenodd;stroke-linecap:round;stroke-linejoin:round;stroke-miterlimit:1.5;"><path d="M202.03,130.884l-204.462,-0" style="fill:none;stroke:#ffcb05;stroke-width:1px;"/><g><path d="M19.509,76.995c13.656,-7.538 30.864,-2.571 38.402,11.085c7.539,13.657 2.572,30.864 -11.084,38.403c-13.657,7.538 -30.864,2.571 -38.403,-11.085c-7.539,-13.656 -2.572,-30.864 11.085,-38.403Z" style="fill:none;stroke:#c00;stroke-width:1px;"/><path d="M8.424,115.398l16.947,-9.355" style="fill:none;stroke:#c00;stroke-width:1px;"/><path d="M41.433,97.176l16.268,-8.979" style="fill:none;stroke:#c00;stroke-width:1px;"/><path d="M28.867,93.948c4.3,-2.374 9.718,-0.81 12.092,3.49c2.374,4.3 0.81,9.719 -3.49,12.092c-4.301,2.374 -9.719,0.81 -12.092,-3.49c-2.374,-4.3 -0.81,-9.718 3.49,-12.092Zm2.15,3.896c2.15,-1.187 4.859,-0.405 6.046,1.745c1.187,2.15 0.405,4.859 -1.745,6.046c-2.15,1.187 -4.859,0.405 -6.046,-1.745c-1.187,-2.15 -0.405,-4.86 1.745,-6.046Z" style="fill:none;stroke:#c00;stroke-width:1px;"/></g></svg>