<?xml version="1.0" encoding="UTF-8" standalone="no"?><!DOCTYPE svg PUBLIC "-//W3C//DTD SVG 1.1//EN" "http://www.w3.org/Graphics/SVG/1.1/DTD/svg11.dtd"><svg width="100%" height="100%" viewBox="0 0 1290 250" version="1.1" xmlns="http://www.w3.org/2000/svg" xmlns:xlink="http://www.w3.org/1999/xlink" xml:space="preserve" xmlns:serif="http://www.serif.com/" style="fill-rule:evenodd;clip-rule:evenodd;stroke-linecap:round;stroke-linejoin:round;stroke-miterlimit:1.5;"><path d="M1357.39,225.636l-1373.73,0" style="fill:none;stroke:#ffcb05;stroke-width:6.72px;"/><g><path d="M119.404,42.308c45.64,-25.194 103.147,-8.594 128.34,37.045c25.193,45.639 8.594,103.146 -37.045,128.339c-45.639,25.194 -103.146,8.594 -128.339,-37.045c-25.194,-45.639 -8.595,-103.146 37.044,-128.339Z" style="fill:none;stroke:#c00;stroke-width:6.72px;"/><path d="M82.36,170.647l56.636,-31.264" style="fill:none;stroke:#c00;stroke-width:6.72px;"/><path d="M192.674,109.752l54.365,-30.01" style="fill:none;stroke:#c00;stroke-width:6.72px;"/><path d="M150.679,98.962c14.37,-7.932 32.478,-2.706 40.41,11.665c7.933,14.37 2.706,32.478 -11.664,40.411c-14.371,7.932 -32.478,2.706 -40.411,-11.665c-7.933,-14.37 -2.706,-32.478 11.665,-40.411Zm7.186,13.019c7.185,-3.966 16.239,-1.353 20.206,5.832c3.966,7.186 1.353,16.239 -5.833,20.206c-7.185,3.966 -16.239,1.353 -20.205,-5.832c-3.966,-7.186 -1.353,-16.239 5.832,-20.206Z" style="fill:none;stroke:#c00;stroke-width:6.72px;"/></g></svg>