<?xml version="1.0" encoding="UTF-8" standalone="no"?><!DOCTYPE svg PUBLIC "-//W3C//DTD SVG 1.1//EN" "http://www.w3.org/Graphics/SVG/1.1/DTD/svg11.dtd"><svg width="100%" height="100%" viewBox="0 0 8 8" version="1.1" xmlns="http://www.w3.org/2000/svg" xmlns:xlink="http://www.w3.org/1999/xlink" xml:space="preserve" xmlns:serif="http://www.serif.com/" style="fill-rule:evenodd;clip-rule:evenodd;stroke-linecap:round;stroke-linejoin:round;stroke-miterlimit:1.5;"><g><circle cx="3.84" cy="3.84" r="3.607" style="fill:none;stroke:#c00;stroke-width:0.2px;"/><path d="M0.233,3.84l2.471,0" style="fill:none;stroke:#c00;stroke-width:0.2px;"/><path d="M5.045,3.84l2.371,0" style="fill:none;stroke:#c00;stroke-width:0.2px;"/><path d="M3.84,2.704c0.627,0 1.136,0.509 1.136,1.136c-0,0.627 -0.509,1.136 -1.136,1.136c-0.627,-0 -1.136,-0.509 -1.136,-1.136c0,-0.627 0.509,-1.136 1.136,-1.136Zm0,0.568c0.313,0 0.568,0.255 0.568,0.568c-0,0.313 -0.255,0.568 -0.568,0.568c-0.313,-0 -0.568,-0.255 -0.568,-0.568c0,-0.313 0.255,-0.568 0.568,-0.568Z" style="fill:none;stroke:#c00;stroke-width:0.2px;"/></g></svg>