<?xml version="1.0" encoding="UTF-8" standalone="no"?><!DOCTYPE svg PUBLIC "-//W3C//DTD SVG 1.1//EN" "http://www.w3.org/Graphics/SVG/1.1/DTD/svg11.dtd"><svg width="100%" height="100%" viewBox="0 0 5375 1042" version="1.1" xmlns="http://www.w3.org/2000/svg" xmlns:xlink="http://www.w3.org/1999/xlink" xml:space="preserve" xmlns:serif="http://www.serif.com/" style="fill-rule:evenodd;clip-rule:evenodd;stroke-linecap:round;stroke-linejoin:round;stroke-miterlimit:1.5;"><path d="M5655.79,940.15l-5723.87,0" style="fill:none;stroke:#ffcb05;stroke-width:27.99px;"/><g><path d="M497.519,176.282c190.163,-104.972 429.775,-35.809 534.748,154.354c104.972,190.163 35.809,429.776 -154.354,534.748c-190.163,104.973 -429.776,35.809 -534.748,-154.354c-104.973,-190.163 -35.809,-429.775 154.354,-534.748Z" style="fill:none;stroke:#c00;stroke-width:27.99px;"/><path d="M343.165,711.03l235.984,-130.266" style="fill:none;stroke:#c00;stroke-width:27.99px;"/><path d="M802.81,457.299l226.52,-125.042" style="fill:none;stroke:#c00;stroke-width:27.99px;"/><path d="M627.828,412.343c59.877,-33.053 135.325,-11.275 168.378,48.602c33.053,59.878 11.275,135.325 -48.602,168.378c-59.878,33.053 -135.325,11.276 -168.378,-48.602c-33.053,-59.877 -11.276,-135.325 48.602,-168.378Zm29.944,54.245c29.938,-16.526 67.662,-5.637 84.189,24.301c16.526,29.939 5.637,67.663 -24.301,84.189c-29.939,16.527 -67.663,5.638 -84.189,-24.301c-16.527,-29.938 -5.638,-67.662 24.301,-84.189Z" style="fill:none;stroke:#c00;stroke-width:27.99px;"/></g></svg>